<svg xmlns="http://www.w3.org/2000/svg" width="485" height="85" viewBox="0 0 485 85"><path fill="#fff" d="M51.50 34.40L51.50 34.40Q51.50 28 49.55 23.45Q47.60 18.90 44.25 16Q40.90 13.10 36.45 11.75Q32 10.40 26.90 10.40L26.90 10.40Q23.70 10.40 21.35 10.60Q19 10.80 17 11.20L17 11.20L17 58.80Q19.40 59.40 22.15 59.60Q24.90 59.80 27.80 59.80L27.80 59.80Q39.60 59.80 45.55 53.40Q51.50 47 51.50 34.40ZM59.80 34.40L59.80 34.40Q59.80 42.60 57.55 48.65Q55.30 54.70 51.15 58.70Q47 62.70 41.10 64.65Q35.20 66.60 27.90 66.60L27.90 66.60Q24.70 66.60 20.70 66.35Q16.70 66.10 13.10 65L13.10 65Q8.90 63.70 8.90 60.40L8.90 60.40L8.90 9Q8.90 7.40 9.70 6.55Q10.50 5.70 12.20 5.20L12.20 5.20Q15.30 4.20 19.20 3.90Q23.10 3.60 27 3.60L27 3.60Q34.30 3.60 40.35 5.55Q46.40 7.50 50.70 11.35Q55 15.20 57.40 20.95Q59.80 26.70 59.80 34.40ZM80.70 27.90L80.70 65.30Q80.20 65.50 79.20 65.75Q78.20 66 77 66L77 66Q72.70 66 72.70 62.40L72.70 62.40L72.70 28.50Q72.70 26.20 73.55 24.85Q74.40 23.50 76.40 22.20L76.40 22.20Q79 20.50 83.45 19.25Q87.90 18 93.50 18L93.50 18Q101.50 18 101.50 22L101.50 22Q101.50 23 101.20 23.85Q100.90 24.70 100.40 25.30L100.40 25.30Q99.40 25.10 97.80 24.90Q96.20 24.70 94.60 24.70L94.60 24.70Q90 24.70 86.50 25.65Q83 26.60 80.70 27.90L80.70 27.90ZM147.40 42.80L116.60 47.10Q119.30 60.20 133.80 60.20L133.80 60.20Q138 60.20 141.40 58.80Q144.80 57.40 146.80 55.80L146.80 55.80Q149.20 57.20 149.20 59.60L149.20 59.60Q149.20 61 147.95 62.30Q146.70 63.60 144.55 64.60Q142.40 65.60 139.55 66.20Q136.70 66.80 133.40 66.80L133.40 66.80Q121.80 66.80 115.05 60.50Q108.30 54.20 108.30 42.10L108.30 42.10Q108.30 36.40 109.95 31.95Q111.60 27.50 114.55 24.40Q117.50 21.30 121.60 19.65Q125.70 18 130.50 18L130.50 18Q135 18 138.80 19.50Q142.60 21 145.35 23.75Q148.10 26.50 149.65 30.25Q151.20 34 151.20 38.50L151.20 38.50Q151.20 40.70 150.20 41.65Q149.20 42.60 147.40 42.80L147.40 42.80ZM130.40 24.50L130.40 24.50Q124.30 24.50 120.30 28.75Q116.30 33 116.10 40.90L116.10 40.90L143.60 37.10Q143.10 31.60 139.75 28.05Q136.40 24.50 130.40 24.50ZM179.30 60.30L179.30 60.30Q183.50 60.30 186.25 59.45Q189 58.60 190.20 57.80L190.20 57.80L190.20 43.30L177.80 44.60Q172.60 45.10 170.10 46.95Q167.60 48.80 167.60 52.40L167.60 52.40Q167.60 56.20 170.50 58.25Q173.40 60.30 179.30 60.30ZM179.20 18L179.20 18Q187.90 18 193 21.90Q198.10 25.80 198.10 34.20L198.10 34.20L198.10 57.90Q198.10 60.10 197.25 61.25Q196.40 62.40 194.70 63.40L194.70 63.40Q192.30 64.80 188.35 65.85Q184.40 66.90 179.30 66.90L179.30 66.90Q169.90 66.90 164.75 63.20Q159.60 59.50 159.60 52.50L159.60 52.50Q159.60 45.90 163.90 42.55Q168.20 39.20 176 38.40L176 38.40L190.20 37L190.20 34.20Q190.20 29.20 187.20 26.90Q184.20 24.60 179.10 24.60L179.10 24.60Q174.90 24.60 171.20 25.80Q167.50 27 164.60 28.50L164.60 28.50Q163.80 27.80 163.15 26.90Q162.50 26 162.50 24.90L162.50 24.90Q162.50 23.50 163.20 22.60Q163.90 21.70 165.40 20.90L165.40 20.90Q168.10 19.50 171.60 18.75Q175.10 18 179.20 18ZM271.30 34.10L271.30 34.10Q271.30 29.20 268.50 26.90Q265.70 24.60 261 24.60L261 24.60Q254.50 24.60 249.40 29.20L249.40 29.20Q250.00 31.20 250.00 33.50L250.00 33.50L250.00 65.30Q249.50 65.50 248.45 65.75Q247.40 66 246.30 66L246.30 66Q242.00 66 242.00 62.40L242.00 62.40L242.00 34.10Q242.00 29.20 239.20 26.90Q236.40 24.60 231.60 24.60L231.60 24.60Q228.40 24.60 225.55 25.60Q222.70 26.60 220.70 27.90L220.70 27.90L220.70 65.30Q220.20 65.50 219.20 65.75Q218.20 66 217.00 66L217.00 66Q212.70 66 212.70 62.40L212.70 62.40L212.70 28.30Q212.70 26.30 213.55 24.95Q214.40 23.60 216.50 22.20L216.50 22.20Q219.20 20.50 223.35 19.25Q227.50 18 231.70 18L231.70 18Q236.60 18 240.40 19.45Q244.20 20.90 246.20 23.40L246.20 23.40Q248.80 21.10 252.70 19.55Q256.60 18 261.60 18L261.60 18Q269.70 18 274.50 21.85Q279.30 25.70 279.30 33.70L279.30 33.70L279.30 65.30Q278.80 65.50 277.75 65.75Q276.70 66 275.60 66L275.60 66Q271.30 66 271.30 62.40L271.30 62.40L271.30 34.10ZM314 66.80L314 66.80Q310.50 66.80 307.40 66Q304.30 65.20 302.30 64.10L302.30 64.10L302.30 83.50Q301.80 83.70 300.80 83.95Q299.80 84.20 298.60 84.20L298.60 84.20Q294.30 84.20 294.30 80.50L294.30 80.50L294.30 27.70Q294.30 25.70 295 24.50Q295.70 23.30 297.90 22L297.90 22Q300.60 20.50 304.35 19.25Q308.10 18 312.90 18L312.90 18Q317.80 18 322.15 19.40Q326.50 20.80 329.65 23.75Q332.80 26.70 334.65 31.30Q336.50 35.90 336.50 42.30L336.50 42.30Q336.50 48.50 334.85 53.10Q333.20 57.70 330.20 60.75Q327.20 63.80 323.05 65.30Q318.90 66.80 314 66.80ZM312.90 60.20L312.90 60.20Q319.90 60.20 324.15 55.95Q328.40 51.70 328.40 42.30L328.40 42.30Q328.40 37.40 327.15 34Q325.90 30.60 323.75 28.50Q321.60 26.40 318.80 25.50Q316 24.60 312.90 24.60L312.90 24.60Q309.30 24.60 306.80 25.50Q304.30 26.40 302.30 27.50L302.30 27.50L302.30 57Q304.20 58.40 306.80 59.30Q309.40 60.20 312.90 60.20ZM365.40 60.30L365.40 60.30Q369.60 60.30 372.35 59.45Q375.10 58.60 376.30 57.80L376.30 57.80L376.30 43.30L363.90 44.60Q358.70 45.10 356.20 46.95Q353.70 48.80 353.70 52.40L353.70 52.40Q353.70 56.20 356.60 58.25Q359.50 60.30 365.40 60.30ZM365.30 18L365.30 18Q374.00 18 379.10 21.90Q384.20 25.80 384.20 34.20L384.20 34.20L384.20 57.90Q384.20 60.10 383.35 61.25Q382.50 62.40 380.80 63.40L380.80 63.40Q378.40 64.80 374.45 65.85Q370.50 66.90 365.40 66.90L365.40 66.90Q356.00 66.90 350.85 63.20Q345.70 59.50 345.70 52.50L345.70 52.50Q345.70 45.90 350.00 42.55Q354.30 39.20 362.10 38.40L362.10 38.40L376.30 37L376.30 34.20Q376.30 29.20 373.30 26.90Q370.30 24.60 365.20 24.60L365.20 24.60Q361.00 24.60 357.30 25.80Q353.60 27 350.70 28.50L350.70 28.50Q349.90 27.80 349.25 26.90Q348.60 26 348.60 24.90L348.60 24.90Q348.60 23.50 349.30 22.60Q350.00 21.70 351.50 20.90L351.50 20.90Q354.20 19.50 357.70 18.75Q361.20 18 365.30 18ZM420.20 24.70L420.20 24.70Q416.80 24.70 413.90 25.85Q411.00 27 408.90 29.25Q406.80 31.50 405.60 34.85Q404.40 38.20 404.40 42.50L404.40 42.50Q404.40 51.10 408.70 55.65Q413.00 60.20 420.20 60.20L420.20 60.20Q424.40 60.20 427.20 59.05Q430.00 57.90 432.20 56.40L432.20 56.40Q433.30 57 434.00 57.90Q434.70 58.80 434.70 60.10L434.70 60.10Q434.70 61.50 433.60 62.70Q432.50 63.90 430.55 64.80Q428.60 65.70 425.95 66.25Q423.30 66.80 420.20 66.80L420.20 66.80Q415.00 66.80 410.60 65.30Q406.20 63.80 403.00 60.80Q399.80 57.80 398.00 53.25Q396.20 48.70 396.20 42.50L396.20 42.50Q396.20 36.40 398.10 31.85Q400.00 27.30 403.20 24.20Q406.40 21.10 410.75 19.55Q415.10 18 420.00 18L420.00 18Q423.10 18 425.75 18.55Q428.40 19.10 430.30 20.10Q432.20 21.10 433.25 22.35Q434.30 23.60 434.30 24.90L434.30 24.90Q434.30 26.10 433.60 27Q432.90 27.90 431.80 28.40L431.80 28.40Q429.60 26.90 427.00 25.80Q424.40 24.70 420.20 24.70ZM454.80 65.30L454.80 65.30Q454.30 65.50 453.30 65.75Q452.30 66 451.10 66L451.10 66Q446.80 66 446.80 62.40L446.80 62.40L446.80 0.70Q447.30 0.50 448.35 0.25Q449.40 0 450.60 0L450.60 0Q454.80 0 454.80 3.60L454.80 3.60L454.80 39.60L476.70 18.40Q479.10 18.50 480.45 19.55Q481.80 20.60 481.80 22.30L481.80 22.30Q481.80 23.70 480.90 24.75Q480.00 25.80 478.50 27.20L478.50 27.20L462.40 41.30L484.70 61.30Q484.50 63.50 483.35 64.80Q482.20 66.10 480.30 66.10L480.30 66.10Q478.80 66.10 477.55 65.35Q476.30 64.60 475.00 63.20L475.00 63.20L454.80 42.90L454.80 65.30Z"></path></svg>